<svg viewBox="0 0 64 64" xmlns="http://www.w3.org/2000/svg" role="img" aria-label="โลโก้ทุเรียนลุงทิม">
  <defs>
    <linearGradient id="gold" x1="0" y1="0" x2="1" y2="1">
      <stop offset="0" stop-color="#e7c34a"/>
      <stop offset="1" stop-color="#b07f23"/>
    </linearGradient>
    <linearGradient id="green" x1="0.2" y1="0.1" x2="0.85" y2="0.95">
      <stop offset="0" stop-color="#74b23f"/>
      <stop offset="1" stop-color="#3a7218"/>
    </linearGradient>
    <linearGradient id="flesh" x1="0" y1="0" x2="0" y2="1">
      <stop offset="0" stop-color="#f8d75a"/>
      <stop offset="1" stop-color="#eab31c"/>
    </linearGradient>
  </defs>

  <!-- เส้นโค้งสีทอง -->
  <path d="M44.6 8.7 A 28 28 0 1 0 44.6 61.3"
        fill="none" stroke="url(#gold)" stroke-width="4.6" stroke-linecap="round"/>

  <!-- ก้าน + ใบ -->
  <path d="M35 18 L35 11" stroke="#3f7c20" stroke-width="2" stroke-linecap="round"/>
  <g>
    <ellipse cx="29.5" cy="10" rx="6.2" ry="3" fill="#5aa033" transform="rotate(-32 29.5 10)"/>
    <path d="M24 12 Q30 9 35 10" fill="none" stroke="#3f7c20" stroke-width="0.9" transform="rotate(-32 29.5 10)"/>
    <ellipse cx="40.5" cy="10" rx="6.2" ry="3" fill="#69b53e" transform="rotate(32 40.5 10)"/>
    <path d="M35 10 Q41 9 46 12" fill="none" stroke="#3f7c20" stroke-width="0.9" transform="rotate(32 40.5 10)"/>
  </g>

  <!-- ตัวทุเรียนมีหนาม -->
  <path d="M35.00 14.00 L37.69 19.74 L42.18 15.27 L42.75 21.58 L48.50 18.91 L46.87 25.04 L53.19 24.50 L49.57 29.70 L55.68 31.35 L50.50 35.00 L55.68 38.65 L49.57 40.30 L53.19 45.50 L46.87 44.96 L48.50 51.09 L42.75 48.42 L42.18 54.73 L37.69 50.26 L35.00 56.00 L32.31 50.26 L27.82 54.73 L27.25 48.42 L21.50 51.09 L23.13 44.96 L16.81 45.50 L20.43 40.30 L14.32 38.65 L19.50 35.00 L14.32 31.35 L20.43 29.70 L16.81 24.50 L23.13 25.04 L21.50 18.91 L27.25 21.58 L27.82 15.27 L32.31 19.74 Z"
        fill="url(#green)" stroke="#2f5f17" stroke-width="0.8" stroke-linejoin="round"/>

  <!-- เนื้อทุเรียนสีเหลือง -->
  <ellipse cx="35" cy="36.5" rx="6.4" ry="8.2" fill="url(#flesh)"/>
  <path d="M35 29 Q31.5 36.5 35 44 Q38.5 36.5 35 29 Z" fill="#f3c736" opacity="0.65"/>
  <ellipse cx="32.8" cy="34" rx="1.5" ry="2.4" fill="#fbe48a" opacity="0.8"/>
</svg>
